<svg enable-background="new 0 0 800 600" viewBox="0 0 800 600" xmlns="http://www.w3.org/2000/svg"><g fill="#fff"><path d="m52.79 382.479c-.476 1.601-.822 3.168-1.038 4.702-.217 1.536-.324 3.038-.324 4.508 0 2.983.659 5.902 1.978 8.756 1.318 2.854 3.264 5.384 5.837 7.589 2.572 2.205 5.74 3.978 9.502 5.318s8.085 2.011 12.972 2.011c3.415 0 6.853-.324 10.312-.973s6.788-1.622 9.988-2.919c3.199-1.297 6.172-2.897 8.918-4.8s5.134-4.129 7.167-6.681c2.032-2.551 3.632-5.404 4.8-8.561s1.751-6.616 1.751-10.378c0-3.588-.486-6.852-1.459-9.793-.973-2.94-2.325-5.61-4.054-8.01s-3.773-4.605-6.129-6.616c-2.357-2.01-4.908-3.869-7.653-5.578-2.747-1.708-5.643-3.34-8.691-4.897-3.049-1.557-6.108-3.091-9.178-4.605-3.243-1.599-6.454-3.243-9.631-4.929-3.178-1.687-6.227-3.502-9.146-5.448-2.918-1.946-5.621-4.075-8.107-6.389-2.487-2.312-4.637-4.896-6.453-7.75s-3.243-6.021-4.281-9.502c-1.038-3.48-1.557-7.383-1.557-11.707 0-4.497.637-8.701 1.914-12.615 1.274-3.913 3.048-7.513 5.318-10.799 2.27-3.285 4.972-6.215 8.107-8.788 3.134-2.572 6.561-4.756 10.28-6.551 3.718-1.794 7.653-3.156 11.804-4.086 4.151-.929 8.41-1.394 12.777-1.394 3.978 0 7.956.421 11.934 1.265 3.978.843 7.556 2.151 10.734 3.924s5.761 4.032 7.75 6.778c1.988 2.746 2.983 6 2.983 9.761 0 1.946-.368 3.751-1.103 5.416-.736 1.665-1.741 3.113-3.016 4.346-1.276 1.232-2.756 2.195-4.443 2.886-1.686.692-3.459 1.038-5.318 1.038-.606 0-1.232-.032-1.881-.097-.648-.065-1.276-.205-1.881-.421l-.583-.584c.778-2.724 1.167-5.145 1.167-7.264 0-3.632-.627-6.626-1.881-8.983-1.255-2.356-2.886-4.226-4.897-5.61-2.011-1.383-4.281-2.356-6.81-2.918-2.53-.562-5.07-.843-7.621-.843-4.411 0-8.508.681-12.291 2.043-3.784 1.362-7.059 3.275-9.826 5.74-2.768 2.464-4.94 5.405-6.519 8.821s-2.367 7.178-2.367 11.285c0 3.502.475 6.681 1.427 9.534.951 2.854 2.28 5.459 3.989 7.815 1.708 2.357 3.729 4.519 6.064 6.486 2.335 1.968 4.875 3.805 7.621 5.513s5.643 3.34 8.691 4.897 6.129 3.092 9.242 4.605c3.07 1.514 6.183 3.081 9.34 4.702 3.156 1.622 6.227 3.395 9.21 5.318 2.983 1.925 5.783 4.033 8.399 6.324 2.616 2.292 4.907 4.843 6.875 7.653 1.967 2.812 3.512 5.946 4.637 9.405 1.124 3.46 1.687 7.308 1.687 11.545 0 5.794-.854 11.102-2.562 15.922-1.709 4.821-4.033 9.156-6.973 13.004-2.941 3.849-6.378 7.221-10.312 10.118-3.935 2.896-8.151 5.308-12.647 7.231-4.498 1.924-9.145 3.362-13.944 4.313-4.8.95-9.535 1.427-14.204 1.427-2.941 0-6.087-.238-9.437-.713-3.352-.477-6.692-1.2-10.021-2.173-3.33-.974-6.529-2.217-9.599-3.729-3.07-1.515-5.772-3.319-8.107-5.416-2.335-2.098-4.205-4.508-5.61-7.231-1.405-2.725-2.108-5.772-2.108-9.146 0-2.161.389-4.129 1.167-5.902.778-1.772 1.816-3.296 3.113-4.572 1.297-1.274 2.778-2.259 4.443-2.951 1.664-.69 3.383-1.037 5.156-1.037.649 0 1.308.055 1.979.162.67.108 1.351.292 2.043.551z"/><path d="m184.132 263.917c-1.816 8.216-3.34 16.701-4.573 25.458-1.232 8.756-2.281 17.393-3.146 25.911 2.032.087 4.01.152 5.935.194 1.923.043 3.718.087 5.383.13 1.664.043 3.178.065 4.54.065s2.497 0 3.405 0c3.934 0 7.156-.237 9.664-.714.216.736.389 1.406.519 2.011.13.606.195 1.167.195 1.687 0 1.903-.79 3.135-2.367 3.697-1.579.562-3.859.843-6.843.843-2.854 0-6.043-.172-9.567-.519-3.524-.345-7.384-.67-11.577-.973-.476 4.627-.875 9.135-1.2 13.523-.325 4.389-.584 8.529-.778 12.42-.195 3.892-.335 7.502-.422 10.832s-.129 6.227-.129 8.691c0 4.627.237 8.756.713 12.388.475 3.632 1.318 6.713 2.529 9.242 1.21 2.529 2.875 4.465 4.994 5.805 2.118 1.341 4.8 2.011 8.042 2.011 2.335 0 4.939-.41 7.815-1.232 2.875-.821 6.15-2.141 9.826-3.956 1.167 1.167 1.837 2.594 2.011 4.28-2.682 1.773-5.383 3.384-8.107 4.832-2.724 1.449-5.406 2.691-8.042 3.729-2.638 1.037-5.188 1.837-7.653 2.399s-4.8.844-7.005.844c-2.897 0-5.545-.53-7.945-1.59-2.399-1.06-4.475-2.939-6.226-5.643-1.751-2.701-3.113-6.345-4.086-10.929-.973-4.582-1.459-10.376-1.459-17.381 0-3.934.064-7.988.194-12.161.13-4.172.302-8.399.519-12.68.216-4.281.497-8.562.843-12.842.345-4.281.734-8.497 1.167-12.647-3.416.043-6.583.185-9.501.421-2.919.238-5.416.616-7.491 1.135-.13-.259-.195-.562-.195-.908 0-.908.443-1.761 1.33-2.562.886-.799 2.118-1.524 3.697-2.172 1.578-.649 3.47-1.189 5.675-1.622 2.206-.432 4.626-.735 7.264-.908.995-9.037 2.053-17.577 3.178-25.619 1.124-8.042 2.248-15.22 3.373-21.533.216-1.124.616-2.053 1.2-2.789.583-.734 1.265-1.318 2.043-1.751.778-.432 1.622-.735 2.529-.908.908-.172 1.794-.259 2.659-.259 1.427 0 2.713.152 3.859.454 1.145.302 2.216.735 3.211 1.296z"/><path d="m266.635 337.467c0-3.416-.562-6.377-1.687-8.886-1.125-2.507-2.594-4.562-4.41-6.162-1.816-1.599-3.87-2.789-6.162-3.567s-4.584-1.167-6.875-1.167c-3.071 0-5.665.324-7.783.973-2.119.648-3.838 1.535-5.156 2.659-1.319 1.125-2.27 2.455-2.854 3.989-.583 1.535-.875 3.189-.875 4.962 0 2.075.378 4.162 1.135 6.259.756 2.098 1.87 4.141 3.34 6.129l-.26.713c-2.464 1.211-4.952 1.816-7.458 1.816-1.471 0-2.844-.227-4.119-.681-1.276-.454-2.378-1.113-3.308-1.978-.931-.865-1.666-1.924-2.206-3.178-.541-1.254-.811-2.659-.811-4.216 0-2.551.616-4.951 1.849-7.199 1.232-2.248 2.864-4.302 4.896-6.162 2.032-1.859 4.388-3.524 7.07-4.994 2.681-1.47 5.448-2.713 8.302-3.729s5.718-1.794 8.594-2.335c2.875-.54 5.545-.811 8.01-.811 4.54 0 8.42.606 11.642 1.816 3.221 1.211 5.837 2.973 7.848 5.286 2.01 2.313 3.48 5.113 4.41 8.399.929 3.287 1.395 7.005 1.395 11.156 0 2.854-.12 5.989-.357 9.405-.238 3.416-.508 6.995-.811 10.734-.303 3.741-.574 7.6-.811 11.577-.238 3.979-.357 7.936-.357 11.87 0 6.226 1.156 10.906 3.47 14.041 2.312 3.136 5.351 4.702 9.112 4.702 3.329 0 7.047-1.232 11.156-3.696l1.881 2.789c-2.897 2.896-6.054 5.103-9.469 6.615-3.416 1.513-7.005 2.27-10.767 2.27-2.811 0-5.406-.476-7.783-1.427-2.378-.951-4.433-2.367-6.162-4.248s-3.07-4.248-4.021-7.102c-.952-2.854-1.427-6.162-1.427-9.924 0-1.124.032-2.247.097-3.372.065-1.124.205-2.312.421-3.567h-.389c-1.859 3.719-4.011 7.384-6.453 10.993-2.443 3.61-5.124 6.832-8.042 9.664-2.919 2.832-6.032 5.124-9.34 6.875s-6.778 2.627-10.41 2.627c-2.984 0-5.708-.52-8.172-1.557-2.465-1.038-4.573-2.465-6.324-4.281-1.751-1.815-3.113-3.966-4.086-6.453-.973-2.486-1.459-5.199-1.459-8.14 0-3.805.702-7.264 2.108-10.377 1.404-3.113 3.35-5.902 5.837-8.367 2.486-2.465 5.458-4.594 8.918-6.389 3.458-1.794 7.221-3.286 11.285-4.476 4.064-1.188 8.367-2.075 12.907-2.659 4.54-.583 9.167-.875 13.88-.875.302-2.724.551-5.361.746-7.913.198-2.55.295-5.36.295-8.431zm-39.823 44.558c0 1.686.183 3.297.551 4.832.367 1.534.951 2.886 1.751 4.053.8 1.168 1.816 2.087 3.048 2.757 1.232.671 2.713 1.005 4.443 1.005 1.946 0 3.957-.454 6.032-1.361 2.076-.908 4.119-2.162 6.129-3.762s3.934-3.513 5.772-5.74c1.837-2.227 3.491-4.659 4.962-7.296 1.469-2.637 2.691-5.416 3.664-8.334s1.61-5.912 1.914-8.983c-3.2.087-6.378.292-9.534.616-3.157.324-6.151.833-8.983 1.524-2.833.692-5.459 1.6-7.88 2.724-2.422 1.125-4.508 2.52-6.259 4.184-1.751 1.665-3.125 3.632-4.119 5.902-.994 2.269-1.491 4.896-1.491 7.879z"/><path d="m314.569 405.828-1.038-.065c.346-4.107.67-8.582.973-13.426.302-4.842.583-9.761.843-14.754.259-4.994.486-9.945.681-14.853.195-4.907.367-9.491.519-13.75.151-4.258.259-8.075.324-11.447.065-3.373.097-6.032.097-7.978 0-1.599-.064-2.983-.194-4.151s-.421-2.14-.875-2.918-1.114-1.351-1.979-1.719c-.865-.367-2.033-.551-3.502-.551-.736 0-1.492.043-2.271.129-.778.087-1.644.217-2.594.389-.952.173-2.021.4-3.21.681-1.19.282-2.562.616-4.119 1.005l-.973-4.67c7.177-2.594 12.993-4.42 17.447-5.48 4.453-1.059 7.459-1.589 9.016-1.589 2.854 0 4.897.833 6.129 2.497 1.232 1.665 1.849 4.141 1.849 7.426 0 .303-.043 1.189-.13 2.659s-.206 3.384-.356 5.74c-.152 2.357-.335 5.092-.551 8.205-.217 3.113-.465 6.454-.746 10.021-.282 3.567-.595 7.287-.94 11.156-.347 3.87-.713 7.729-1.103 11.577l.648.065c2.076-8.474 4.421-16.377 7.038-23.706 2.615-7.329 5.555-13.695 8.821-19.101 3.264-5.404 6.853-9.653 10.766-12.745 3.913-3.091 8.205-4.637 12.875-4.637 1.643 0 3.178.259 4.605.778s2.66 1.243 3.697 2.173c1.038.93 1.858 2.033 2.464 3.308.605 1.276.908 2.67.908 4.184 0 1.945-.421 3.816-1.265 5.61-.843 1.795-2.173 3.384-3.989 4.767h-.519c-1.816-1.513-3.535-2.604-5.156-3.275-1.622-.67-3.34-1.005-5.156-1.005-1.946 0-3.827.368-5.643 1.103-1.816.736-3.481 1.794-4.994 3.178-2.465 2.249-4.757 5.221-6.875 8.918-2.119 3.697-4.054 7.794-5.805 12.291-1.751 4.498-3.33 9.221-4.734 14.172-1.406 4.952-2.617 9.772-3.632 14.463-1.017 4.692-1.838 9.103-2.465 13.23-.627 4.13-1.07 7.6-1.33 10.41z"/><path d="m412.184 230.061c-.865 7.351-1.718 14.885-2.562 22.603-.843 7.718-1.644 15.523-2.399 23.414-.757 7.892-1.46 15.815-2.108 23.771s-1.211 15.793-1.687 23.511-.843 15.296-1.103 22.733c-.259 7.438-.389 14.572-.389 21.403 0 4.281.054 7.957.162 11.026.107 3.07.28 5.665.519 7.783.237 2.119.562 3.826.973 5.124.411 1.297.919 2.292 1.524 2.983s1.318 1.157 2.141 1.395c.821.237 1.794.356 2.919.356 2.076 0 4.312-.313 6.713-.94 2.4-.626 4.832-1.502 7.297-2.627l1.232 3.373c-1.557 1.254-3.514 2.529-5.871 3.826-2.355 1.297-4.832 2.487-7.426 3.567-2.595 1.08-5.135 1.956-7.621 2.627-2.486.67-4.637 1.005-6.454 1.005-2.335 0-4.183-.595-5.545-1.783s-2.399-3.123-3.113-5.805c-.713-2.681-1.167-6.172-1.362-10.475-.194-4.302-.292-9.544-.292-15.728 0-2.248.065-5.458.195-9.632.129-4.172.313-9.025.551-14.561.237-5.535.508-11.587.811-18.161.302-6.572.626-13.371.973-20.398.345-7.026.713-14.117 1.103-21.274.389-7.156.778-14.074 1.167-20.755.389-6.68.756-12.982 1.103-18.906.346-5.923.67-11.156.973-15.696.043-1.038.346-1.935.908-2.692.562-.756 1.286-1.362 2.173-1.816.886-.454 1.881-.789 2.983-1.005 1.103-.216 2.215-.324 3.34-.324 2.594.002 5.318.695 8.172 2.078z"/><path d="m495.011 384.035c.26.13.595.314 1.006.552.41.238.788.498 1.135.778.346.281.648.584.908.908s.389.639.389.94c0 .173-.064.346-.194.519-2.422 3.372-5.026 6.303-7.815 8.788-2.789 2.487-5.687 4.562-8.691 6.227s-6.063 2.896-9.177 3.697c-3.113.8-6.185 1.199-9.21 1.199-5.189 0-9.946-1.06-14.27-3.178s-8.042-5.016-11.155-8.691c-3.113-3.674-5.546-7.987-7.297-12.938s-2.627-10.258-2.627-15.923c0-4.626.508-9.252 1.524-13.88 1.016-4.626 2.486-9.037 4.41-13.231s4.27-8.096 7.037-11.707c2.767-3.61 5.912-6.746 9.438-9.405 3.523-2.659 7.394-4.745 11.609-6.259 4.216-1.513 8.745-2.27 13.588-2.27 3.199 0 6.248.433 9.146 1.297 2.896.865 5.437 2.108 7.621 3.729 2.183 1.622 3.924 3.622 5.221 6s1.946 5.082 1.946 8.107c0 4.411-1.438 8.259-4.313 11.545-2.876 3.287-6.843 6.075-11.901 8.367-5.06 2.292-11.017 4.141-17.869 5.545-6.854 1.406-14.259 2.455-22.214 3.146v1.103c0 5.535.702 10.594 2.107 15.177s3.341 8.507 5.806 11.772c2.464 3.265 5.36 5.805 8.69 7.62 3.329 1.816 6.918 2.725 10.767 2.725 3.892 0 7.881-.962 11.967-2.887 4.084-1.923 8.223-5.048 12.418-9.372zm-12.194-52.081c0-1.988-.335-3.848-1.005-5.578-.671-1.729-1.601-3.232-2.789-4.508-1.189-1.275-2.605-2.28-4.248-3.016-1.644-.734-3.416-1.103-5.318-1.103-2.812 0-5.362.498-7.653 1.492-2.293.995-4.346 2.346-6.162 4.054-1.815 1.708-3.416 3.697-4.8 5.967s-2.562 4.681-3.534 7.231c-.973 2.552-1.763 5.167-2.367 7.848-.606 2.682-1.038 5.297-1.298 7.848 6.14-.432 11.643-1.177 16.507-2.237 4.864-1.059 8.972-2.421 12.323-4.086 3.351-1.664 5.912-3.653 7.686-5.967 1.772-2.312 2.658-4.961 2.658-7.945z"/><path d="m591.978 316.193c3.373 0 6.421-.042 9.146-.129 2.724-.086 4.842-.172 6.356-.26 1.945-.086 3.739-.194 5.383-.324 1.643-.13 3.069-.302 4.28-.519.476 1.644.714 2.941.714 3.892 0 1.903-.789 3.189-2.367 3.859-1.579.671-3.859 1.005-6.843 1.005-2.854 0-6.054-.043-9.599-.13-3.547-.086-7.417-.216-11.61-.389-.477 4.973-.865 9.708-1.167 14.204-.304 4.498-.552 8.648-.746 12.453-.194 3.806-.336 7.178-.422 10.118-.087 2.941-.13 5.341-.13 7.199 0 4.627.237 8.756.714 12.388.476 3.632 1.318 6.713 2.529 9.242 1.21 2.529 2.875 4.465 4.994 5.805 2.118 1.341 4.8 2.011 8.043 2.011 2.335 0 4.939-.41 7.815-1.232 2.875-.821 6.15-2.141 9.826-3.956 1.167 1.167 1.837 2.594 2.011 4.28-2.682 1.773-5.384 3.384-8.107 4.832-2.725 1.449-5.406 2.691-8.043 3.729-2.638 1.037-5.188 1.837-7.653 2.399s-4.8.844-7.005.844c-2.897 0-5.545-.53-7.945-1.59-2.399-1.06-4.475-2.939-6.227-5.643-1.751-2.701-3.113-6.345-4.086-10.929-.973-4.582-1.459-10.376-1.459-17.381 0-7.653.227-15.576.681-23.771.454-8.193 1.113-16.657 1.979-25.392-5.362-.216-10.929-.389-16.701-.519-5.772-.129-11.771-.194-17.998-.194h-4.865c-.476 4.627-.875 9.113-1.199 13.458-.324 4.346-.584 8.443-.778 12.291-.194 3.849-.336 7.416-.422 10.702-.087 3.287-.13 6.162-.13 8.626 0 4.627.237 8.756.714 12.388.476 3.632 1.318 6.713 2.529 9.242 1.21 2.529 2.875 4.465 4.994 5.805 2.118 1.341 4.8 2.011 8.043 2.011 2.335 0 4.842-.378 7.523-1.135s5.837-1.979 9.469-3.665c1.168 1.168 1.838 2.595 2.011 4.28-2.464 1.645-5.005 3.157-7.621 4.541s-5.231 2.584-7.848 3.6c-2.616 1.015-5.167 1.815-7.653 2.399s-4.832.876-7.037.876c-2.897 0-5.545-.53-7.945-1.59-2.399-1.06-4.475-2.939-6.227-5.643-1.751-2.701-3.113-6.345-4.086-10.929-.973-4.582-1.459-10.376-1.459-17.381 0-7.956.237-16.183.713-24.679.476-8.497 1.146-16.938 2.011-25.328-3.416.043-6.583.185-9.502.422-2.918.238-5.415.616-7.491 1.135-.087-.13-.141-.302-.162-.519-.021-.216-.032-.389-.032-.519 0-.908.443-1.772 1.33-2.594.886-.821 2.118-1.567 3.696-2.238 1.578-.67 3.471-1.232 5.676-1.687s4.626-.767 7.264-.94c.432-3.934.886-7.826 1.362-11.674s.962-7.578 1.459-11.188.994-7.047 1.492-10.312c.496-3.264.982-6.259 1.459-8.983.216-1.167.616-2.14 1.2-2.918s1.254-1.395 2.011-1.849c.756-.454 1.578-.767 2.465-.94.886-.172 1.761-.259 2.626-.259 1.428 0 2.702.152 3.827.454 1.124.303 2.183.736 3.178 1.297-.735 3.632-1.427 7.405-2.075 11.318-.648 3.914-1.255 7.859-1.816 11.837-.562 3.979-1.081 7.945-1.557 11.901-.476 3.957-.907 7.815-1.297 11.578 6.615 0 13.199.076 19.75.227 6.551.152 13.155.314 19.814.487.864-8.475 1.848-16.755 2.95-24.841 1.103-8.085 2.346-15.847 3.729-23.284.216-1.124.616-2.053 1.2-2.789.584-.734 1.265-1.318 2.043-1.751.778-.432 1.621-.735 2.529-.908.908-.172 1.794-.259 2.659-.259 1.427 0 2.713.152 3.859.454 1.146.303 2.216.736 3.211 1.297-.908 4.108-1.752 8.346-2.53 12.712-.778 4.368-1.491 8.767-2.14 13.199-.648 4.433-1.232 8.865-1.752 13.296-.519 4.433-.973 8.788-1.361 13.069h3.826z"/><path d="m688.685 384.035c.26.13.595.314 1.006.552.41.238.788.498 1.135.778.346.281.648.584.908.908s.389.639.389.94c0 .173-.064.346-.194.519-2.422 3.372-5.026 6.303-7.815 8.788-2.789 2.487-5.687 4.562-8.691 6.227s-6.063 2.896-9.177 3.697c-3.113.8-6.185 1.199-9.21 1.199-5.189 0-9.946-1.06-14.27-3.178s-8.042-5.016-11.155-8.691c-3.113-3.674-5.546-7.987-7.297-12.938s-2.627-10.258-2.627-15.923c0-4.626.508-9.252 1.524-13.88 1.016-4.626 2.486-9.037 4.41-13.231s4.27-8.096 7.037-11.707c2.767-3.61 5.912-6.746 9.438-9.405 3.523-2.659 7.394-4.745 11.609-6.259 4.216-1.513 8.745-2.27 13.588-2.27 3.199 0 6.248.433 9.146 1.297 2.896.865 5.437 2.108 7.621 3.729 2.183 1.622 3.924 3.622 5.221 6s1.946 5.082 1.946 8.107c0 4.411-1.438 8.259-4.313 11.545-2.876 3.287-6.843 6.075-11.901 8.367-5.06 2.292-11.017 4.141-17.869 5.545-6.854 1.406-14.259 2.455-22.214 3.146v1.103c0 5.535.702 10.594 2.107 15.177s3.341 8.507 5.806 11.772c2.464 3.265 5.36 5.805 8.69 7.62 3.329 1.816 6.918 2.725 10.767 2.725 3.892 0 7.881-.962 11.967-2.887 4.084-1.923 8.223-5.048 12.418-9.372zm-12.194-52.081c0-1.988-.335-3.848-1.005-5.578-.671-1.729-1.601-3.232-2.789-4.508-1.189-1.275-2.605-2.28-4.248-3.016-1.644-.734-3.416-1.103-5.318-1.103-2.812 0-5.362.498-7.653 1.492-2.293.995-4.346 2.346-6.162 4.054-1.815 1.708-3.416 3.697-4.8 5.967s-2.562 4.681-3.534 7.231c-.973 2.552-1.763 5.167-2.367 7.848-.606 2.682-1.038 5.297-1.298 7.848 6.14-.432 11.643-1.177 16.507-2.237 4.864-1.059 8.972-2.421 12.323-4.086 3.351-1.664 5.912-3.653 7.686-5.967 1.772-2.312 2.658-4.961 2.658-7.945z"/></g><path d="m760.74 252.477-36.46-16.889-2.623-40.096c-.184-2.808-3.636-4.034-5.549-1.971l-27.329 29.456-38.944-9.895c-2.727-.693-4.96 2.212-3.59 4.669l19.57 35.094-21.446 33.98c-1.502 2.379.571 5.401 3.331 4.857l39.424-7.767 25.69 30.896c1.799 2.163 5.313 1.126 5.649-1.667l4.796-39.895 37.323-14.885c2.611-1.042 2.711-4.704.158-5.887z" fill="#ffdc65"/><path d="m680.765 179.618c.974 3.352 2.326 16.744 3.054 24.528.115 1.224-1.54 1.704-2.099.61-3.555-6.962-9.587-18.995-10.561-22.347-.771-2.653.755-5.428 3.408-6.198 2.652-.771 5.427.755 6.198 3.407z" fill="#fff182"/><path d="m757.849 207c-2.87 1.987-12.368 11.525-17.843 17.105-.861.877.12 2.294 1.244 1.797 7.15-3.159 19.421-8.691 22.292-10.678 2.271-1.572 2.838-4.688 1.266-6.959s-4.687-2.837-6.959-1.265z" fill="#fff182"/><path d="m760.413 296.075c-2.765-2.131-14.738-8.281-21.717-11.802-1.097-.554-2.149.812-1.334 1.731 5.183 5.852 14.181 15.863 16.946 17.994 2.188 1.686 5.328 1.279 7.015-.909 1.685-2.188 1.278-5.328-.91-7.014z" fill="#fff182"/><path d="m622.585 247.116c3.49.091 16.66 2.872 24.296 4.543 1.2.263 1.155 1.985-.057 2.185-7.713 1.271-21.01 3.363-24.5 3.272-2.761-.072-4.941-2.369-4.869-5.13.072-2.762 2.368-4.942 5.13-4.87z" fill="#fff182"/><path d="m722.61 210.073-.954-14.581c-.184-2.808-3.636-4.034-5.55-1.971l-27.329 29.456-38.944-9.895c-2.727-.693-4.96 2.212-3.59 4.669l19.57 35.094-21.446 33.98c-1.502 2.379.571 5.401 3.331 4.857l5.247-1.034c23.439-43.46 55.4-70.122 69.665-80.575z" fill="#fdc850"/></svg>